<svg id="Layer_1" data-name="Layer 1" xmlns="http://www.w3.org/2000/svg" viewBox="0 0 239 275.11"><defs><style>.cls-1{fill:#414441;}.cls-2{fill:#727272;}.cls-3{fill:#545955;}.cls-4{fill:#fcfcfc;}.cls-5{fill:#fffdfd;}.cls-6,.cls-8,.cls-9{fill:#fff;}.cls-6,.cls-9{stroke:#000;}.cls-11,.cls-16,.cls-17,.cls-18,.cls-6,.cls-9{stroke-miterlimit:10;}.cls-6{stroke-width:0.67px;}.cls-7{fill:#80d2f8;}.cls-9{stroke-width:0.59px;}.cls-10{fill:#13507c;}.cls-11{fill:#d65751;stroke:#3b3f3c;}.cls-12{fill:#7f1928;}.cls-13{fill:#ddd;}.cls-14{fill:#21409a;}.cls-15{fill:#0f2356;}.cls-16,.cls-17,.cls-18{fill:none;stroke:#21409a;stroke-linecap:round;}.cls-16{stroke-width:1.95px;}.cls-17{stroke-width:2.11px;}.cls-18{stroke-width:1.79px;}</style></defs><title>FOR_ROCIO_Keiko-Final-Source-Illustrator file</title><path class="cls-1" d="M348.59,294.74s1-14.75-6.25-14.25-12.5,0-4.5-6.75,17.5-8.75,29.25-6S348.59,294.74,348.59,294.74Z" transform="translate(-291.84 -197.4)"/><path d="M357.72,286.75c-2.47-4.81-7.57-12.7-13.27-9.5a37.46,37.46,0,0,1-7.18,3.33,38.55,38.55,0,0,0,5.07-.09c7.25-.5,6.25,14.25,6.25,14.25S353,291.24,357.72,286.75Z" transform="translate(-291.84 -197.4)"/><path class="cls-2" d="M340.09,274.69c7.57-5.05,16-5.85,25.85-2.32a4.82,4.82,0,0,1,.88.41c.68-2,.24-3.47-2.06-4-10.21-2.39-18.47-.65-25.42,5.22-3.33,2.8-4,4.37-3.14,5.19C335.82,278.25,336.85,276.84,340.09,274.69Z" transform="translate(-291.84 -197.4)"/><path class="cls-1" d="M471.73,332.4c.79-5.71-14.78-.89-21.43-.22s-29.55-6.91-35.46,4.91-7.14,27.65,4.19,26.32S469,352,471.73,332.4Z" transform="translate(-291.84 -197.4)"/><path d="M417.31,354.64c-3.26-.05-5.31-1.36-6.41-3.46-.74,7.3,1.45,13.05,8.46,12.23,10.51-1.24,44.19-9.92,51.23-26.84C460,351,427.52,354.81,417.31,354.64Z" transform="translate(-291.84 -197.4)"/><path class="cls-2" d="M452,336c4.35-.4,11.14-4.69,18.31-3.47-2-3.92-13.63,1-19.06,1.52s-23.1-5.25-28.88,3C430.09,331.8,446.65,336.52,452,336Z" transform="translate(-291.84 -197.4)"/><path d="M416.67,361.11l5.46-22.79,8.06-10.18,2.46,2.55s-9.53,21.43-7.14,26.82S416.67,361.11,416.67,361.11Z" transform="translate(-291.84 -197.4)"/><path class="cls-3" d="M340.59,331.74s3.33-75.5,56-75.5c46.17,0,44,39.92,44,39.92s8.8,6.41-6.7,32.41-13,37.45-12.33,42.92,16.25,35.25,55.25,21c0,0-10.75-7.25-5.25-16.5s3.75-19.75,3.75-19.75,17.75,5.5,19.25,18.25a17.15,17.15,0,0,1,15.5-4.5c9.5,2,19-.75,20.75-5.25,0,0-2.75,32.5-40.25,33,0,0-21.75,18.75-65.25,18.75S340.59,362.74,340.59,331.74Z" transform="translate(-291.84 -197.4)"/><path d="M489.09,398.57c37.5-.5,41.75-33.5,41.75-33.5a5,5,0,0,1-.64,1.12c-2,8.48-9.88,29-39.61,29.38Z" transform="translate(-291.84 -197.4)"/><path d="M496.42,391.9s-26.35,20.84-71.79,20.84c-22.65,0-44.72-13.36-61.16-30.59,16,18.89,38.49,34.09,61.62,34.09,43.5,0,65.25-18.75,65.25-18.75Z" transform="translate(-291.84 -197.4)"/><path class="cls-2" d="M478.53,358.67s13.63,8.78,14.47,20.4c0,0,5.75-7.17,14.33-5s19.44-1.43,21.32-5.42c.05-.28,0-.17,0-.17-1.78,4-11.83,5.32-20.41,3.11S494,376.5,494,376.5c-.84-11.62-16.82-18.89-16.82-18.89Z" transform="translate(-291.84 -197.4)"/><path class="cls-2" d="M395.87,261.23c14.81,0,24.4,3.76,30.62,8.74-5.53-6.17-14.89-11.23-30.71-11.23-14,0-24,5.76-31.19,13.78C372.16,265.82,382.29,261.23,395.87,261.23Z" transform="translate(-291.84 -197.4)"/><path d="M480.76,391.07s-10.58-4.44-6.22-14.61c3.83-8.92,2-17.94,1.43-20a8,8,0,0,1-.69-.43s2.14,10.75-3.36,20,5.25,16.5,5.25,16.5Z" transform="translate(-291.84 -197.4)"/><path class="cls-3" d="M299.84,332.74c-.8-6.41,15-1,21.75-.25s30-7.75,36,5.5,7.25,31-4.25,29.5S302.59,354.74,299.84,332.74Z" transform="translate(-291.84 -197.4)"/><path d="M355.08,358.87c-10.71-.34-45.77-6.65-54.91-24.65,4.6,20.8,42,31.47,53.17,32.93,6.79.89,9.13-4.93,8.68-12.57C360.94,357.31,358.74,359,355.08,358.87Z" transform="translate(-291.84 -197.4)"/><path class="cls-4" d="M353.63,314.74c2-9.58,4.51-13.68,8.06-18.07s9.13-13.1,6.18-16-10.63-3.35-16.86,11.4,2.87,23.66,2.87,23.66" transform="translate(-291.84 -197.4)"/><path class="cls-5" d="M412.92,321.4c-7.83,0-19.08-8.41-27.83-19.16s-52-3.35-11,72.5c33.5,62,107.33,22,107.33,22s-57.25,17.5-70-18,21.2-53.1,26-61c5.67-9.34,4.84-21.42-10.5-10.84C426.92,306.9,426.51,321.4,412.92,321.4Z" transform="translate(-291.84 -197.4)"/><path class="cls-2" d="M319.07,336.87c-4.34-.51-11.06-5.3-17.65-4.13,0-4.33,13,1.52,18.45,2.21s23.22-4.65,28.79,3.73C341,333.2,324.35,337.5,319.07,336.87Z" transform="translate(-291.84 -197.4)"/><path class="cls-6" d="M386.77,292.54a28.47,28.47,0,0,1,5.87,2.45,18.39,18.39,0,0,0,5.29-8.6c2.3-7.76-.29-15.37-5.77-17s-11.79,3.36-14.09,11.12a18.12,18.12,0,0,0,0,10.9A25,25,0,0,1,386.77,292.54Z" transform="translate(-291.84 -197.4)"/><path class="cls-7" d="M382.85,290.66a30.85,30.85,0,0,1,4.3.93l1.08.35c2.31-1,4.44-3.53,5.44-6.91,1.45-4.91,0-9.69-3.35-10.66s-7.15,2.21-8.6,7.13C380.65,285.11,381.18,288.65,382.85,290.66Z" transform="translate(-291.84 -197.4)"/><circle cx="95.37" cy="87.2" r="3.9"/><circle class="cls-8" cx="93.23" cy="83.91" r="1.67"/><path class="cls-9" d="M426.31,293.82a21.19,21.19,0,0,1,5.09,0,16.3,16.3,0,0,0,1.11-8.47c-.82-6.83-5.17-11.92-9.71-11.38s-7.56,6.53-6.74,13.35a15,15,0,0,0,3.79,8.16A17.81,17.81,0,0,1,426.31,293.82Z" transform="translate(-291.84 -197.4)"/><path class="cls-7" d="M422.6,293.58a22.08,22.08,0,0,1,3.46-.68l.9-.09c1.38-1.51,2.12-4.23,1.77-7.2-.52-4.32-3.16-7.56-5.9-7.23s-4.53,4.1-4,8.42C419.2,290,420.73,292.57,422.6,293.58Z" transform="translate(-291.84 -197.4)"/><ellipse cx="424.07" cy="287.46" rx="3.12" ry="3.32" transform="translate(-323.12 -144.71) rotate(-6.86)"/><ellipse class="cls-8" cx="421.44" cy="285.6" rx="1.34" ry="1.42" transform="translate(-322.92 -145.04) rotate(-6.86)"/><path class="cls-10" d="M381.59,282.79c1.49-5.06,5.28-8.41,8.45-7.47s4.54,5.8,3,10.87a13.18,13.18,0,0,1-.62,1.7,13.74,13.74,0,0,0,1.37-3.14c1.49-5.07,0-10-3.34-11s-7.25,2.32-8.75,7.38a13.87,13.87,0,0,0-.56,3.39A14.13,14.13,0,0,1,381.59,282.79Z" transform="translate(-291.84 -197.4)"/><path class="cls-10" d="M419.14,287.85c-.53-4.45,1.16-8.32,3.79-8.63s5.2,3,5.73,7.49a11.44,11.44,0,0,1,.1,1.53,12.88,12.88,0,0,0,0-2.91c-.54-4.45-3.21-7.79-6-7.46s-4.57,4.22-4,8.67a12.46,12.46,0,0,0,.67,2.83A14.59,14.59,0,0,1,419.14,287.85Z" transform="translate(-291.84 -197.4)"/><path class="cls-11" d="M386.26,302.4s28.83,19.34,40.66,4.5c0,0-1,14.5-14,14.5S386.26,302.4,386.26,302.4Z" transform="translate(-291.84 -197.4)"/><path class="cls-12" d="M417.91,319.15l.14,0,0-.07Z" transform="translate(-291.84 -197.4)"/><path class="cls-12" d="M406.51,314a17.44,17.44,0,0,0-9-1.25c4.62,3.85,10.16,7.16,15.58,7.16a14.11,14.11,0,0,0,4.82-.79l.1-.12A11.06,11.06,0,0,0,406.51,314Z" transform="translate(-291.84 -197.4)"/><path class="cls-12" d="M418,319l0,.07h0Z" transform="translate(-291.84 -197.4)"/><path d="M412.43,291.46c-6.77-.53-12.84,1-16.46,3.65a25.59,25.59,0,0,1,12.82-2.05c9.86.77,17.51,6.06,17.09,11.81-.24,3.35-3.18,6.12-7.54,7.69,7-1.07,12.15-4.49,12.47-8.93C431.24,297.74,423,292.29,412.43,291.46Z" transform="translate(-291.84 -197.4)"/><path class="cls-2" d="M408.76,293.75c6.36,0,10.33,1.92,14.52,5-1.69-3.69-7.39-6.61-14.14-6.61-6.16,0-11.54,1.62-14.55,4.05A38.47,38.47,0,0,1,408.76,293.75Z" transform="translate(-291.84 -197.4)"/><path class="cls-13" d="M407.45,384.21a4.93,4.93,0,0,1-7.3,6.27c-15.54-11.63-35.26-32.91-37.06-66.74-1.91-36.08,36.5,3,36.5,3s20-3,14,6C408.45,340.45,390.45,352.57,407.45,384.21Z" transform="translate(-291.84 -197.4)"/><circle class="cls-14" cx="109.68" cy="13.5" r="13.5"/><path class="cls-15" d="M411,201.27a15,15,0,0,1-15.34,21.5c-.27,0-.52-.09-.79-.14a13.32,13.32,0,0,0,5.06,1.67,13.49,13.49,0,0,0,11.07-23Z" transform="translate(-291.84 -197.4)"/><circle class="cls-8" cx="107.34" cy="8.78" r="5.58"/><circle class="cls-14" cx="15.13" cy="65.26" r="13.5"/><path class="cls-15" d="M316.41,253a15,15,0,0,1-15.34,21.5l-.78-.14A13.49,13.49,0,0,0,316.41,253Z" transform="translate(-291.84 -197.4)"/><circle class="cls-8" cx="12.79" cy="60.54" r="5.58"/><circle class="cls-14" cx="181.81" cy="106.01" r="13.5"/><path class="cls-15" d="M483.15,293.84a15,15,0,0,1-15.46,21.4c-.27,0-.53-.09-.79-.14a13.49,13.49,0,0,0,16.25-21.26Z" transform="translate(-291.84 -197.4)"/><circle class="cls-8" cx="179.5" cy="101.28" r="5.58"/><path class="cls-14" d="M321.08,427.08h.09c.88,0,2.19.59,3.94,1.78,1.43,1.1,2.15,3.1,2.15,6,.4,5.24.61,8.26.61,9.05V446c0,.08.13.14.39.16q2.36-2.06,8.54-7.77,5.19-4.62,7.77-5.81a22.47,22.47,0,0,1,2.72-1.32l.88-.09a5,5,0,0,1,3.25,1.68,2.52,2.52,0,0,1,.55,1.56,2.92,2.92,0,0,1-1.16,2,49.87,49.87,0,0,0-3.86,5.35,47.8,47.8,0,0,1-5,5.93,16.73,16.73,0,0,0-1.78,2q5.6,5.51,9.12,8.6a42,42,0,0,1,5.26,5.93,5.64,5.64,0,0,1,1.16,2.2q0,.94-1.5,1.53a6.76,6.76,0,0,1-3.33.95h-.19a15.3,15.3,0,0,1-6.54-2.05,16.45,16.45,0,0,1-3.64-3.36q-5.88-6.15-7.43-7.59H333a31.4,31.4,0,0,0-4,2.39,2.68,2.68,0,0,0-2,2.78q-1,6.27-1.41,6.27a2.12,2.12,0,0,1-1.31.95,12.19,12.19,0,0,1-2.78.33h-.1q-3.81,0-4.8-1.74A5.24,5.24,0,0,1,316,464v-2.88a11.26,11.26,0,0,1-2.54-.95,2.55,2.55,0,0,1-1.43-2.38,2.48,2.48,0,0,1,.73-1.78,17.35,17.35,0,0,1,2.87-3.21,5,5,0,0,0,.71-3.09q.15-9.39.43-14.95c-.05-1.31-.07-2.05-.07-2.23,0-1.61.21-2.64.62-3.06a2.42,2.42,0,0,1,1.31-1.32A4.3,4.3,0,0,1,321.08,427.08Z" transform="translate(-291.84 -197.4)"/><path class="cls-14" d="M373.72,430.23a18.06,18.06,0,0,1,8.3,2.26q2.88,1.77,2.88,3.55c0,1.33-1.15,2.57-3.44,3.7a4.06,4.06,0,0,1-.62.07h-.41a13.79,13.79,0,0,1-3.83-1.2,12.48,12.48,0,0,0-4-.59,3.59,3.59,0,0,0-1.23-.18h-.28c-1.67,0-3.12,1-4.37,2.93-1.36,1.5-2,2.65-2,3.44a1.25,1.25,0,0,1,0,.44c0,.9.17,1.48.51,1.72a5.76,5.76,0,0,0,4.14,1.85h1.47c3.54,0,5.73.6,6.55,1.8,1.22,1.4,1.83,2.34,1.83,2.8s0,.51,0,.54q0,2.64-3.62,3.8c-2,.41-4.53.81-7.71,1.18a1.13,1.13,0,0,0-.95,1.29v.13a4.29,4.29,0,0,0,2.31,3.6,10.31,10.31,0,0,0,6.27,2.08h.28a6.18,6.18,0,0,0,3.34-.8q4.76-2.13,6.2-2.13h.33a3,3,0,0,1,2.8,1.67,2.42,2.42,0,0,1,.18.87v.18a6.19,6.19,0,0,1-1.85,3.73,8.56,8.56,0,0,1-3.16,2.08,13.79,13.79,0,0,1-3.19.51,23.66,23.66,0,0,1-5.52.57,30.17,30.17,0,0,1-8.46-1.44,21.17,21.17,0,0,1-4.57-1.64,10.83,10.83,0,0,1-5.14-5.89,6.92,6.92,0,0,1-.39-2.08c0-1.95,1.08-3.66,3.24-5.11.65-.52,1.95-1.45,3.91-2.81,0,0-1-.46-3.11-1.33a10.58,10.58,0,0,1-3.42-2.32,8.31,8.31,0,0,1-1.77-5.42q0-6.84,9.71-11.51Q370.54,430.23,373.72,430.23Z" transform="translate(-291.84 -197.4)"/><path class="cls-14" d="M405.87,429.84a6.73,6.73,0,0,1,2.73,1,3.86,3.86,0,0,0,2.85,1c1.47,0,2.66-.05,3.55-.05h5.29c1.41,0,3,1.16,4.73,3.49a2.07,2.07,0,0,1,.72,1.18v.18c0,.83-1.74,1.63-5.22,2.42a14.48,14.48,0,0,1-2.29.2h-1.59a13.41,13.41,0,0,1-1.44,0,15,15,0,0,1-1.51,0H411.6a36.11,36.11,0,0,1,.52,5.61c-.19,2.53-.28,3.9-.28,4.11v.46c0,.5,0,1.06.05,1.67a74.52,74.52,0,0,1-1.37,10.41v.67c0,.48.12.72.34.72a13.45,13.45,0,0,0,2.88.36h.54c.12,0,.83,0,2.13-.13h0a7.27,7.27,0,0,1,5.89,3,1.86,1.86,0,0,1,.36,1v0q0,2.27-7.28,3c-2.14.18-3.81.26-5,.26h-.31a1.69,1.69,0,0,0-1.9,1.42,1.15,1.15,0,0,1-1.1.54l-.29.05a13.52,13.52,0,0,1-4.36-.88,8.82,8.82,0,0,1-1.75-1.18c-.11,0-.16,0-.16-.08a12.69,12.69,0,0,1-2.85.29h-.54a41,41,0,0,1-6.4-.67,2.13,2.13,0,0,1-1.62-2v0q0-2.44,2.93-3.52a37.26,37.26,0,0,1,8.17-1.26,5,5,0,0,1,1.06-.23,24.3,24.3,0,0,1-.52-3.6q0-2.49,1-11.36a24.89,24.89,0,0,0,.43-4c0-.6,0-1.31-.05-2.13,0-.19.14-1.08.41-2.67l-2,.1-3.24,0H396q-4.25,0-5.53-1.95a2.22,2.22,0,0,1-.2-.85v-.07a3.18,3.18,0,0,1,2.64-3.22,49.77,49.77,0,0,1,7.07-.82h.59l1.13,0,3.14-2.29A3.21,3.21,0,0,1,405.87,429.84Z" transform="translate(-291.84 -197.4)"/><path class="cls-14" d="M433.15,427.08h.09c.87,0,2.19.59,3.94,1.78,1.43,1.1,2.14,3.1,2.14,6q.62,7.86.62,9.05V446c0,.08.13.14.39.16q2.35-2.06,8.54-7.77,5.19-4.62,7.76-5.81a23.15,23.15,0,0,1,2.73-1.32l.88-.09a5,5,0,0,1,3.25,1.68,2.52,2.52,0,0,1,.55,1.56,2.9,2.9,0,0,1-1.17,2,50.09,50.09,0,0,0-3.85,5.35,48.74,48.74,0,0,1-5,5.93,16.73,16.73,0,0,0-1.78,2q5.6,5.51,9.12,8.6a41.09,41.09,0,0,1,5.25,5.93,5.57,5.57,0,0,1,1.17,2.2q0,.94-1.5,1.53a6.77,6.77,0,0,1-3.34.95h-.18a15.3,15.3,0,0,1-6.54-2.05,16.45,16.45,0,0,1-3.64-3.36q-5.88-6.15-7.43-7.59h-.07a32.62,32.62,0,0,0-4,2.39,2.68,2.68,0,0,0-2,2.78q-1,6.27-1.41,6.27a2.12,2.12,0,0,1-1.31.95,12.21,12.21,0,0,1-2.79.33h-.09q-3.83,0-4.8-1.74a5.24,5.24,0,0,1-.61-2.9v-2.88a11.26,11.26,0,0,1-2.54-.95,2.56,2.56,0,0,1-1.44-2.38,2.49,2.49,0,0,1,.74-1.78,17.35,17.35,0,0,1,2.87-3.21,5,5,0,0,0,.71-3.09q.15-9.39.42-14.95c0-1.31-.06-2.05-.06-2.23,0-1.61.21-2.64.62-3.06a2.42,2.42,0,0,1,1.31-1.32A4.3,4.3,0,0,1,433.15,427.08Z" transform="translate(-291.84 -197.4)"/><path class="cls-14" d="M494.22,429.8a8.23,8.23,0,0,1,4.65,1.66,33.48,33.48,0,0,1,5.94,3.6,9.7,9.7,0,0,1,2.93,3.86,8.12,8.12,0,0,0,1.81,2,12.15,12.15,0,0,1,2.84,6,10.34,10.34,0,0,1,.25,1.77v.59a27.74,27.74,0,0,1-1.69,6.91,10.69,10.69,0,0,1-4.55,5.29,20.11,20.11,0,0,1-8.32,3.73,34.24,34.24,0,0,1-7.16.89h-.3a3.91,3.91,0,0,0-.49,0q-7.83-.46-9.39-.61a22.31,22.31,0,0,1-6.52-1.87,7.49,7.49,0,0,1-2.32-1.5q-2.94-2.54-4.86-4.56a10.43,10.43,0,0,1-1.56-3.21,15.46,15.46,0,0,1-.8-4.65q0-4.27,3.06-10.15a14.13,14.13,0,0,1,4.25-3.85,28.14,28.14,0,0,1,12-5C485.7,430.49,489.13,430.15,494.22,429.8Zm-18.77,19c0,2.81,1.47,5.26,4.43,7.34a16.5,16.5,0,0,0,6.3,2.2c1.84.57,3.18,1,4,1.13s1.26.09,1.53.09a21.41,21.41,0,0,0,5.75-1,10.66,10.66,0,0,0,2.26-2.38q2.69-3.67,2.69-6.55v-.24a26.18,26.18,0,0,1-.58-3.86,9,9,0,0,0-2-3.64q-2.94-3-3.55-3.12a6.7,6.7,0,0,0-3.57-1,24.12,24.12,0,0,0-10,2.69,24.84,24.84,0,0,0-5,3.86A6,6,0,0,0,475.45,448.8Z" transform="translate(-291.84 -197.4)"/><path class="cls-16" d="M300.79,304.85a86.74,86.74,0,0,1,.56-23.32" transform="translate(-291.84 -197.4)"/><path class="cls-16" d="M458.44,247.38a85,85,0,0,1,12.36,32.24" transform="translate(-291.84 -197.4)"/><path class="cls-16" d="M349.31,220.28a84.85,84.85,0,0,1,27.1-8.6" transform="translate(-291.84 -197.4)"/><path class="cls-17" d="M351.3,211.87a91.48,91.48,0,0,1,33.15-8" transform="translate(-291.84 -197.4)"/><path class="cls-17" d="M294.67,313.61a93,93,0,0,1-.29-34.69" transform="translate(-291.84 -197.4)"/><path class="cls-17" d="M468.23,251.29a91.52,91.52,0,0,1,10.26,30.2" transform="translate(-291.84 -197.4)"/><path class="cls-18" d="M358.7,224a77.34,77.34,0,0,1,24.09-5.91" transform="translate(-291.84 -197.4)"/><path class="cls-18" d="M308.24,309.51a79.18,79.18,0,0,1-.22-26.69" transform="translate(-291.84 -197.4)"/><path class="cls-18" d="M453.85,255a77.74,77.74,0,0,1,9.34,22.57" transform="translate(-291.84 -197.4)"/></svg>